# xmcd
# 
# Track frame offsets:
#     150
#     18226
#     36631
#     50297
#     69300
#     90909
#     111119
#     128601
#     149857
#     169167
#     185163
#     204412
#     228155
#     247946
#     266584
# 
# Disc length: 3849
# 
# Revision: 2
# Processed by: cddbd v1.5.2PL0 Copyright (c) Steve Scherf et al.
# Submitted via: BonkEnc v1.0.15
# 
DISCID=ce0f070f
DTITLE=Johnny Hallyday - Le coeur d'un homme
DYEAR=2008
DGENRE=Blues
TTITLE0=Monument Valley
TTITLE1=Etre un homme
TTITLE2=Always
TTITLE3=Chavirer les foules
TTITLE4=Vous Madame
TTITLE5=Je reviendrai dans tes bras
TTITLE6=Que restera-t-il?
TTITLE7=T'aimer si mal (featuring Taj Mahal)
TTITLE8=Ma vie
TTITLE9=Laquelle de toi
TTITLE10=Sarbacane
TTITLE11=Ce que j'ai fait de ma vie
TTITLE12=I am the Blues
TTITLE13=Le blues maudit
TTITLE14=Les news
EXTD=2008 - Le Coeur D'un Homme - CD/DVD Boitier.Crystal \n514 427 086 2 \nWARNER MUSIC 2008\ndanielrogeremorine@hotmail.fr
EXTT0=
EXTT1=
EXTT2=
EXTT3=
EXTT4=
EXTT5=
EXTT6=
EXTT7=
EXTT8=
EXTT9=
EXTT10=
EXTT11=
EXTT12=
EXTT13=
EXTT14=
PLAYORDER=
